<?xml version="1.0" standalone="no"?>
<!DOCTYPE svg PUBLIC "-//W3C//DTD SVG 20010904//EN"
 "http://www.w3.org/TR/2001/REC-SVG-20010904/DTD/svg10.dtd">
<svg version="1.0" xmlns="http://www.w3.org/2000/svg"
 width="720.000000pt" height="245.000000pt" viewBox="0 0 720.000000 245.000000"
 preserveAspectRatio="xMidYMid meet">

<g transform="translate(0.000000,245.000000) scale(0.100000,-0.100000)"
fill="#000000" stroke="none">
<path d="M1194 2016 c-234 -54 -410 -216 -490 -451 -22 -67 -27 -98 -27 -185
0 -190 61 -340 192 -470 148 -147 345 -215 541 -189 319 43 558 298 577 614 7
120 -14 214 -73 334 -78 157 -221 279 -389 331 -90 28 -246 35 -331 16z m150
-312 c3 -9 6 -24 6 -34 0 -12 10 -21 30 -25 67 -15 132 -111 101 -149 -13 -15
-41 -11 -41 6 0 6 -7 25 -16 43 -25 52 -95 70 -159 40 -43 -21 -59 -57 -45
-101 10 -28 25 -40 108 -83 54 -27 110 -61 124 -74 33 -30 44 -86 29 -136 -13
-45 -37 -69 -88 -86 -30 -11 -39 -19 -44 -45 -4 -18 -12 -37 -18 -43 -16 -16
-41 11 -41 45 0 19 -6 31 -17 34 -39 12 -69 34 -90 64 -23 34 -31 89 -13 92 6
0 15 1 22 2 6 1 16 -15 23 -33 15 -45 53 -73 102 -75 59 -1 100 21 113 60 18
53 -2 81 -90 126 -123 63 -149 81 -165 114 -35 74 -5 151 73 189 33 16 42 25
42 46 0 14 3 29 7 32 12 13 41 7 47 -9z"/>
<path d="M2450 1255 c0 -682 2 -775 15 -775 13 0 15 93 15 775 0 682 -2 775
-15 775 -13 0 -15 -93 -15 -775z"/>
<path d="M4765 1870 c-66 -14 -172 -57 -218 -89 -171 -117 -257 -292 -257
-521 0 -185 54 -324 170 -441 185 -186 494 -222 785 -90 100 46 100 45 100
312 0 227 0 227 -24 253 l-24 26 -202 0 c-183 0 -203 -2 -218 -18 -10 -10 -17
-32 -17 -48 0 -64 27 -74 204 -74 l146 0 0 -154 0 -153 -57 -26 c-84 -37 -168
-50 -281 -45 -240 13 -389 151 -422 392 -18 123 8 248 69 342 86 135 243 204
424 189 95 -8 154 -25 249 -70 74 -36 97 -37 131 -7 25 22 22 74 -5 99 -32 29
-112 68 -205 99 -62 21 -101 27 -193 30 -63 2 -133 -1 -155 -6z"/>
<path d="M5892 1865 c-91 -20 -179 -72 -229 -133 -95 -116 -97 -288 -5 -386
71 -74 137 -104 382 -171 221 -61 275 -98 275 -189 -1 -73 -31 -118 -103 -153
-102 -50 -313 -44 -476 13 -38 13 -80 24 -93 24 -51 0 -81 -70 -49 -113 37
-48 272 -107 428 -107 204 0 350 71 420 202 19 36 23 58 23 138 0 86 -3 100
-27 142 -56 93 -138 138 -368 198 -265 69 -320 105 -320 210 0 124 108 191
307 191 104 -1 171 -11 257 -38 46 -14 50 -14 75 4 36 28 37 88 1 114 -70 52
-367 84 -498 54z"/>
<path d="M3091 1834 c-21 -27 -21 -30 -21 -570 l0 -543 24 -28 24 -28 234 1
c261 1 311 9 433 69 298 145 404 571 217 861 -69 106 -176 192 -296 235 -56
21 -83 23 -327 27 l-266 4 -22 -28z m549 -143 c124 -39 226 -134 271 -251 26
-68 36 -204 20 -280 -25 -122 -96 -223 -196 -280 -91 -52 -135 -61 -327 -67
l-178 -6 -2 429 c-2 236 -2 442 0 458 l4 29 171 -6 c135 -4 186 -10 237 -26z"/>
</g>
</svg>
